<?xml version="1.0" encoding="iso-8859-1"?>
<!-- Generator: Adobe Illustrator 19.0.0, SVG Export Plug-In . SVG Version: 6.00 Build 0)  -->
<svg version="1.1" id="Capa_1" xmlns="http://www.w3.org/2000/svg" xmlns:xlink="http://www.w3.org/1999/xlink" x="0px" y="0px"
	 viewBox="0 0 508.928 508.928" style="enable-background:new 0 0 508.928 508.928;" xml:space="preserve">
<g>
	<path d="M254.464,172.928c21.78,0,39.5-17.72,39.5-39.5s-17.72-39.5-39.5-39.5s-39.5,17.72-39.5,39.5
		S232.684,172.928,254.464,172.928z M254.464,108.928c13.509,0,24.5,10.991,24.5,24.5c0,13.509-10.991,24.5-24.5,24.5
		s-24.5-10.991-24.5-24.5C229.964,119.919,240.955,108.928,254.464,108.928z"/>
	<path d="M437.862,500.195l-20.151-120.91c-2.715-16.287-9.386-31.877-19.292-45.084l-80.455-107.273v-101.5
		c0-19.903-5.772-61.385-44.428-115.589C269.143,3.678,262.013,0,254.464,0s-14.679,3.678-19.072,9.839
		c-38.656,54.204-44.428,95.686-44.428,115.589v101.5L110.51,334.201c-9.906,13.208-16.577,28.798-19.292,45.084l-20.151,120.91
		c-0.511,3.065,0.922,6.129,3.603,7.702c1.178,0.691,2.488,1.031,3.794,1.031c1.667,0,3.325-0.555,4.686-1.644l113.854-91.083
		l0.668,7.354c0.916,10.077,7.963,18.088,17.292,20.563v25.31c0,4.142,3.358,7.5,7.5,7.5h24.5v24.5c0,4.142,3.358,7.5,7.5,7.5
		s7.5-3.358,7.5-7.5v-24.5h24.5c4.142,0,7.5-3.358,7.5-7.5v-25.31c9.329-2.475,16.376-10.486,17.292-20.562l0.669-7.355
		l113.854,91.083c1.361,1.089,3.019,1.644,4.686,1.644c1.306,0,2.617-0.34,3.794-1.031
		C436.94,506.324,438.373,503.261,437.862,500.195z M247.605,18.548c1.608-2.255,4.108-3.548,6.859-3.548s5.251,1.293,6.859,3.548
		c6.292,8.823,14.309,21.098,21.625,35.38h-56.97C233.296,39.646,241.313,27.371,247.605,18.548z M218.95,68.928h71.029
		c7.468,17.572,12.986,37.106,12.986,56.5v216.5h-41v-112.5c0-4.142-3.358-7.5-7.5-7.5s-7.5,3.358-7.5,7.5v112.5h-41v-216.5
		C205.964,106.034,211.482,86.5,218.95,68.928z M193.779,399.572L89.084,483.327l16.929-101.576
		c2.321-13.926,8.025-27.257,16.496-38.55l68.455-91.273v97.5c0,0.227,0.01,0.453,0.031,0.679l0.008,0.087c0,0,0,0.001,0,0.001
		l4.399,48.394C194.835,398.844,194.287,399.165,193.779,399.572z M206.677,356.928h40.287v73h-25.889
		c-4.425,0-8.064-3.323-8.465-7.73v0L206.677,356.928z M229.964,461.928v-17h17v17H229.964z M261.964,461.928v-17h17v17H261.964z
		 M287.853,429.928h-25.889v-73h40.287l-5.934,65.27C295.917,426.605,292.278,429.928,287.853,429.928z M315.149,399.572
		c-0.508-0.407-1.056-0.727-1.623-0.982l4.399-48.394c0,0,0-0.001,0-0.001l0.008-0.087c0.021-0.226,0.031-0.453,0.031-0.679v-97.5
		l68.455,91.273c8.471,11.293,14.175,24.624,16.496,38.55l16.929,101.576L315.149,399.572z"/>
</g>
<g>
</g>
<g>
</g>
<g>
</g>
<g>
</g>
<g>
</g>
<g>
</g>
<g>
</g>
<g>
</g>
<g>
</g>
<g>
</g>
<g>
</g>
<g>
</g>
<g>
</g>
<g>
</g>
<g>
</g>
</svg>
